<svg width="180" height="180" viewBox="0 0 180 180" xmlns="http://www.w3.org/2000/svg">
  <style>
    @media (prefers-color-scheme: light) {
      .bg { fill: #12071F; }
      .fg { fill: white; }
    }
    @media (prefers-color-scheme: dark) {
      .bg { fill: white; }
      .fg { fill: #12071F; }
    }
  </style>
  <rect class="bg" width="180" height="180" rx="37" />
  <g class="fg" transform="translate(-91.5, -97.3) scale(0.352)">
    <path d="M319.41,426.12h-31.24v31.24h31.24v-31.24Z"/>
    <path d="M499.75,426.13v31.17h-91.3c-6.58,6.6-83.73,83.83-90.32,90.41h-29.96v-30.36c6.58-6.6,84.39-84.15,90.98-90.74l.49-.49h120.11Z"/>
    <path d="M288.16,608.11v29.81h129.25v-29.81h-129.25Z"/>
    <path d="M464.23,547.66v.41h35.52v-35.52h-35.52v35.11Z"/>
    <path d="M451.41,559.7c-8.4-8.28-16.61-16.51-24.65-24.67-8.03-8.16-15.46-15.65-22.26-22.48h-31.03v31.43h.36c6.71,6.72,14.01,14.1,21.91,22.11,8.03,8.17,16.25,16.39,24.65,24.67,8.4,8.28,16.61,16.51,24.65,24.67,8.03,8.17,15.45,15.66,22.26,22.48h31.03v-31.07c-6.82-6.82-14.24-14.31-22.27-22.48-8.03-8.16-16.25-16.38-24.65-24.67h0Z"/>
    <path d="M562.16,426.12h-31.24v31.24h31.24v-31.24Z"/>
    <path d="M712.69,512.73v125.19h29.77v-125.54h-29.77v.35Z"/>
    <path d="M576.97,471.7c-5.25,5.15-10.51,10.41-15.76,15.78-5.25,5.38-10.51,10.7-15.76,15.96-5.25,5.26-10.11,9.99-14.53,14.2v120.28h29.77v-90.12c4.44-4.44,9.28-9.29,14.53-14.55,5.25-5.26,10.51-10.58,15.77-15.96,5.25-5.37,10.51-10.64,15.76-15.78,5.25-5.14,10.1-9.93,14.53-14.37v-29.81h-29.77c-4.44,4.44-9.28,9.24-14.54,14.37Z"/>
    <path d="M712.68,487.37v25.18h-35.3c-2.9-2.9-51.83-51.64-56.1-56.15v-30.27h30.24c4.27,4.51,56.91,56.96,61.17,61.23Z"/>
  </g>
</svg>
